<svg width="622" height="622" viewBox="0 0 622 622" fill="none" xmlns="http://www.w3.org/2000/svg">
<circle cx="311" cy="311" r="311" fill="#8500BA"/>
<rect x="139" y="121" width="343" height="380" rx="51" fill="#C2C2C2"/>
<rect x="178" y="159" width="343" height="304" rx="25" fill="#8500BA"/>
<rect x="435" y="114" width="47" height="406" rx="23.5" fill="#8500BA"/>
<circle cx="433" cy="140" r="19" fill="#C4C4C4"/>
<circle cx="433" cy="482" r="19" fill="#C4C4C4"/>
<path d="M490.789 324.789C498.404 317.173 498.404 304.827 490.789 297.211L366.691 173.114C359.076 165.499 346.729 165.499 339.114 173.114C331.499 180.729 331.499 193.076 339.114 200.691L449.423 311L339.114 421.309C331.499 428.924 331.499 441.271 339.114 448.886C346.729 456.501 359.076 456.501 366.691 448.886L490.789 324.789ZM477 291.5H413V330.5H477V291.5ZM195 330.5H375.5V291.5H195V330.5ZM375.5 330.5H413V291.5H375.5V330.5Z" fill="#C4C4C4"/>
<rect x="179" y="279" width="99" height="67" fill="#8500BA"/>
<rect x="355.614" y="472.75" width="85.113" height="103.151" rx="30" transform="rotate(-133.524 355.614 472.75)" fill="#8500BA"/>
<rect x="328.077" y="386.14" width="74.3171" height="95.6958" rx="30" transform="rotate(-43.4825 328.077 386.14)" fill="#8500BA"/>
<rect x="297" y="210.569" width="85.113" height="108.886" rx="30" transform="rotate(-43.4825 297 210.569)" fill="#8500BA"/>
<rect x="365" y="254.569" width="85.113" height="33.5959" rx="7" transform="rotate(-43.4825 365 254.569)" fill="#8500BA"/>
<circle cx="278" cy="311" r="19" fill="#C4C4C4"/>
<circle cx="416.5" cy="250.5" r="19.5" fill="#C4C4C4"/>
<circle cx="416.5" cy="371.5" r="19.5" fill="#C4C4C4"/>
</svg>
